# xmcd
#
# Track frame offsets: 
#        150
#        17975
#        47168
#        73653
#        95628
#        115263
#        135913
#        158308
#        183568
#        203082
#        232710
#        258335
#        278455
#        298946
#
# Disc length: 4256 seconds
#
# Revision: 1
# Processed by: cddbd v1.5.2PL0 Copyright (c) Steve Scherf et al.
# Submitted via: ExactAudioCopyFreeDBPlugin 1.0
#
DISCID=bd109e0e
DTITLE=Varios - The Essential Guide to Jazz 02
DYEAR=2007
DGENRE=Smooth Jazz
TTITLE0=Kenny G - Songbird
TTITLE1=Jamie Cullum - In the Wee Small Hours of the Morning
TTITLE2=Ronny Jordan - After Hours (The Antidote)
TTITLE3=Tom Browne - Too Hot
TTITLE4=Kymaera - Breezin'
TTITLE5=Larry Carlton - Sleepwalk
TTITLE6=The Brecon Brothers - Cantaloupe Island
TTITLE7=David Sanborn - Sugar
TTITLE8=2Play - Morning Dance
TTITLE9=Lenny White - Walk On By
TTITLE10=Jazz Urbaine - Street Life
TTITLE11=Michael 'Patches' Stewart - Fields of Gold
TTITLE12=2Play - Just the Two of Us
TTITLE13=Kymaera - Lowdown
EXTD=YEAR: 2007
EXTT0=
EXTT1=
EXTT2=
EXTT3=
EXTT4=
EXTT5=
EXTT6=
EXTT7=
EXTT8=
EXTT9=
EXTT10=
EXTT11=
EXTT12=
EXTT13=
PLAYORDER=
